<?xml version="1.0" encoding="UTF-8" standalone="no"?>
<!-- Created with Inkscape (http://www.inkscape.org/) -->

<svg
   width="210mm"
   height="297mm"
   viewBox="0 0 210 297"
   version="1.1"
   id="svg5"
   xmlns="http://www.w3.org/2000/svg"
   xmlns:svg="http://www.w3.org/2000/svg">
  <defs
     id="defs2" />
  <g
     id="layer1">
    <path
       id="rect234"
       style="fill:none;stroke:#ff0000;stroke-width:0.0193065;stroke-linecap:square;stroke-miterlimit:1;stroke-dasharray:none;paint-order:markers stroke fill"
       d="M 68.992688 91.452816 L 68.992688 191.4462 L 68.999406 191.4462 L 68.999406 206.53468 L 82.966512 206.53468 L 82.966512 145.99574 L 77.073332 145.99574 L 77.073332 142.53807 L 71.238029 142.53807 L 71.238029 93.147803 L 74.536019 93.147803 L 74.536019 98.539722 L 77.073332 98.539722 L 77.073332 91.452816 L 68.992688 91.452816 z " />
    <path
       id="rect3"
       style="fill:none;stroke:#ff0000;stroke-width:0.0189435"
       d="m 71.168248,93.098412 -2.33e-4,40.380588 12.08115,9.4 V 98.58438 h -8.785507 v -5.485968 z" />
    <path
       id="rect4"
       style="fill:none;stroke:#ff0000;stroke-width:0.223242;stroke-dasharray:none"
       d="M 122.09229 50.354549 C 120.00412 50.354549 118.32301 52.035662 118.32301 54.123828 L 118.32301 126.80673 C 118.32301 128.8949 120.00412 130.57601 122.09229 130.57601 L 137.17819 130.57601 L 137.17819 151.26519 C 137.13179 154.76998 135.24049 157.99203 132.19917 159.74736 C 129.1127 161.52496 125.31001 161.52496 122.22355 159.74736 C 119.18221 157.99203 117.29089 154.76998 117.24452 151.26519 L 102.27231 151.26519 C 102.27219 160.17515 107.02558 168.40837 114.74183 172.86335 C 122.45799 177.31829 131.96474 177.31829 139.68088 172.86335 C 147.39713 168.40837 152.15052 160.17515 152.1504 151.26519 L 152.1504 126.20418 L 152.09976 126.20418 L 152.09976 109.89252 L 140.17077 100.68739 L 140.17077 60.306913 L 143.46618 60.306913 L 143.46618 65.792883 L 151.28121 65.792883 L 151.28121 51.799422 C 150.59212 50.924832 149.53532 50.354549 148.33048 50.354549 L 122.09229 50.354549 z " />
  </g>
</svg>
